Coordinates
version=1
nRows=9
nColumns=63
inDegrees=yes

Units are S.I. units (second, meters, Newtons, ...)
If the header above contains a line with 'inDegrees', this indicates whether rotational values are in degrees (yes) or radians (no).

endheader
time	pelvis_tilt	pelvis_list	pelvis_rotation	pelvis_tx	pelvis_ty	pelvis_tz	hip_flexion_r	hip_adduction_r	hip_rotation_r	knee_angle_r	knee_angle_r_beta	ankle_angle_r	subtalar_angle_r	mtp_angle_r	hip_flexion_l	hip_adduction_l	hip_rotation_l	knee_angle_l	knee_angle_l_beta	ankle_angle_l	subtalar_angle_l	mtp_angle_l	L5_S1_Flex_Ext	L5_S1_Lat_Bending	L5_S1_axial_rotation	L4_L5_Flex_Ext	L4_L5_Lat_Bending	L4_L5_axial_rotation	L3_L4_Flex_Ext	L3_L4_Lat_Bending	L3_L4_axial_rotation	L2_L3_Flex_Ext	L2_L3_Lat_Bending	L2_L3_axial_rotation	L1_L2_Flex_Ext	L1_L2_Lat_Bending	L1_L2_axial_rotation	L1_T12_Flex_Ext	L1_T12_Lat_Bending	L1_T12_axial_rotation	Abs_r3	Abs_r2	Abs_r1	Abs_t1	Abs_t2	neck_flexion	neck_bending	neck_rotation	arm_flex_r	arm_add_r	arm_rot_r	elbow_flex_r	pro_sup_r	wrist_flex_r	wrist_dev_r	arm_flex_l	arm_add_l	arm_rot_l	elbow_flex_l	pro_sup_l	wrist_flex_l	wrist_dev_l
      0.00000000	     -3.86001473	     -4.44623856	    102.72747833	      0.05637676	      0.98437501	      0.45808002	     -0.44058490	     -3.51572422	    -16.54290127	     15.61258601	      0.27249103	     28.25741850	     11.53501329	      0.00000000	     -5.08029797	      1.63912114	     -0.06801952	      1.64256807	      0.02866822	     25.95594451	     10.50599892	      0.00000000	      0.05096308	      0.13310937	     -1.04964232	      0.09464354	      0.17703546	     -1.11524496	      0.08372725	      0.32364213	     -1.11524496	      0.05824571	      0.32364213	     -0.91843703	      0.04732432	      0.27143663	     -0.85283438	      0.02912031	      0.20618642	     -0.78723174	      0.36402421	      1.50575983	     -5.83779568	      0.00000000	      0.00000000	     22.27737770	      0.92653386	      3.05139125	     14.36941404	    -11.49716636	     73.80287717	     48.40261622	     88.80298468	     17.04260747	     14.70891421	      8.73416201	     -7.62703404	     52.29764347	     50.97313017	     75.72116206	     15.64285476	     15.54977263
      0.01724138	     -3.95789467	     -4.36316569	    102.72876399	      0.05666070	      0.98399514	      0.45695787	     -0.83180745	     -3.46026565	    -16.83793258	     14.99919530	      0.26178534	     29.07185256	     12.37772259	      0.00000000	     -5.15134916	      1.67954754	      0.10031771	      1.80848029	      0.03156394	     26.44217215	     10.25686404	      0.00000000	      0.04708114	      0.10705623	     -1.04755618	      0.08743439	      0.14238479	     -1.11302844	      0.07734961	      0.26029652	     -1.11302844	      0.05380904	      0.26029652	     -0.91661166	      0.04371955	      0.21830906	     -0.85113940	      0.02690216	      0.16583010	     -0.78566714	      0.33629588	      1.21104148	     -5.82619321	      0.00000000	      0.00000000	     22.46200695	      1.24235033	      2.61575388	     15.00820968	    -11.41033501	     75.32242541	     48.47080832	     88.65052592	     16.89955603	     13.91043425	      8.28363561	     -7.60065843	     51.00933185	     51.04035298	     78.58079627	     17.11706986	     16.91067247
      0.03448276	     -3.99001139	     -4.25396066	    102.61427912	      0.05688191	      0.98363329	      0.45576977	     -1.13929374	     -3.29440685	    -16.29231380	     14.51097849	      0.25326435	     29.49333932	     11.93942870	      0.00000000	     -5.29013651	      1.69480177	      0.62674992	      1.91087577	      0.03335107	     26.75531454	      9.38565096	      0.00000000	      0.04417893	      0.09683360	     -1.00710705	      0.08204469	      0.12878869	     -1.07005124	      0.07258157	      0.23544121	     -1.07005124	      0.05049210	      0.23544121	     -0.88121867	      0.04102456	      0.19746308	     -0.81827448	      0.02524384	      0.14999524	     -0.75533029	      0.31556568	      1.09540104	     -5.60122728	      0.00000000	      0.00000000	     22.50153015	      1.36699216	      2.22026027	     14.93334117	    -11.36193504	     74.71962605	     48.39476810	     88.43748472	     18.19639754	     13.42171019	      8.25051884	     -7.67994918	     51.16057735	     51.09637574	     79.54784190	     17.28618330	     17.91085329
      0.05172414	     -3.98347281	     -4.15604100	    102.70686890	      0.05663644	      0.98333068	      0.45480883	     -1.42570476	     -3.15293544	    -16.06872950	     14.11169671	      0.24629557	     29.71369160	     11.67505341	      0.00000000	     -5.37342973	      1.66679769	      0.81899695	      2.05077865	      0.03579284	     27.08312692	      9.23315953	      0.00000000	      0.04177960	      0.09537370	     -1.02136032	      0.07758890	      0.12684703	     -1.08519534	      0.06863971	      0.23189162	     -1.08519534	      0.04774991	      0.23189162	     -0.89369028	      0.03879654	      0.19448606	     -0.82985526	      0.02387287	      0.14773387	     -0.76602024	      0.29842753	      1.07888641	     -5.68049968	      0.00000000	      0.00000000	     22.44798997	      1.49920141	      2.13430798	     14.58271290	    -11.42209174	     73.49284403	     48.65540109	     87.85224542	     18.74400276	     14.11888772	      8.08848638	     -7.61550435	     50.73745828	     50.99124396	     81.93460097	     18.29430701	     17.92904504
      0.06896552	     -3.95893399	     -4.04890261	    102.79679381	      0.05627700	      0.98305169	      0.45390018	     -1.65597857	     -3.01813177	    -15.77626400	     13.87121418	      0.24209836	     29.74092580	     11.08918038	      0.00000000	     -5.47828596	      1.63133083	      1.08625408	      2.17323096	      0.03793004	     27.28926053	      9.02611161	      0.00000000	      0.04030499	      0.09930911	     -1.02932840	      0.07485040	      0.13208112	     -1.09366143	      0.06621707	      0.24146018	     -1.09366143	      0.04606457	      0.24146018	     -0.90066235	      0.03742721	      0.20251115	     -0.83632933	      0.02303027	      0.15382982	     -0.77199630	      0.28789451	      1.12340457	     -5.72481578	      0.00000000	      0.00000000	     22.32686110	      1.53489261	      2.05870181	     13.92960003	    -11.44666456	     71.47193224	     48.72746861	     86.78152155	     19.70388414	     14.83627001	      8.13299193	     -7.61784978	     51.04561387	     50.93560766	     82.84053785	     18.43428226	     18.07160436
      0.08620690	     -3.96838983	     -3.93154547	    102.98110220	      0.05572663	      0.98281097	      0.45288600	     -1.92702433	     -2.92332122	    -15.49813683	     13.66933353	      0.23857488	     29.62760424	     10.35232606	      0.00000000	     -5.61565029	      1.63017960	      1.46710727	      2.28795481	      0.03993234	     27.37002648	      8.72085535	      0.00000000	      0.03817852	      0.10188118	     -1.05063795	      0.07090133	      0.13550197	     -1.11630282	      0.06272350	      0.24771390	     -1.11630282	      0.04363423	      0.24771390	     -0.91930821	      0.03545258	      0.20775610	     -0.85364333	      0.02181521	      0.15781395	     -0.78797846	      0.27270537	      1.15250028	     -5.84333308	      0.00000000	      0.00000000	     22.15063432	      1.58258833	      2.05566384	     13.04925390	    -11.47747261	     69.34499154	     48.81004791	     82.07111131	     19.75839321	     17.01167332	      8.13734242	     -7.62766967	     51.34409450	     50.95852531	     83.42441520	     18.42244940	     18.26679278
      0.10344828	     -4.00607771	     -3.94815626	    103.21459224	      0.05550740	      0.98253603	      0.45163026	     -2.05078533	     -2.76450419	    -14.41096066	     13.52540374	      0.23606283	     29.17495663	      8.29998449	      0.00000000	     -5.64057235	      1.66975406	      2.41122644	      2.38486068	      0.04162367	     27.13583882	      7.68346629	      0.00000000	      0.05165630	      0.08629361	     -0.99804478	      0.09593091	      0.11477051	     -1.06042258	      0.08486613	      0.20981429	     -1.06042258	      0.05903798	      0.20981429	     -0.87328918	      0.04796804	      0.17596994	     -0.81091138	      0.02951641	      0.13366881	     -0.74853358	      0.36897578	      0.97617063	     -5.55082564	      0.00000000	      0.00000000	     22.12835695	      1.52133174	      1.28127312	      9.76495902	    -12.08139467	     67.97305337	     54.36799573	      1.83116751	    -22.25676462	     26.50942650	      8.40712382	     -7.67449420	     52.26951662	     50.80507938	     84.51475312	     18.65841287	     17.56994181
      0.12068966	     -4.03891878	     -3.81382459	    103.38053823	      0.05490524	      0.98225728	      0.45084747	     -2.27620521	     -2.78966165	    -14.76265015	     13.62894171	      0.23786991	     28.98062397	      8.26181921	      0.00000000	     -5.79952272	      1.68354150	      1.98876853	      2.51612172	      0.04391461	     27.01580484	      8.30964091	      0.00000000	      0.04632811	      0.08573640	     -1.01586144	      0.08603594	      0.11402941	     -1.07935278	      0.07611245	      0.20845948	     -1.07935278	      0.05294840	      0.20845948	     -0.88887876	      0.04302028	      0.17483366	     -0.82538742	      0.02647188	      0.13280568	     -0.76189608	      0.33091707	      0.96986728	     -5.64991656	      0.00000000	      0.00000000	     21.97185576	      1.42071540	      1.05582237	      9.71771085	    -12.18178999	     67.95188439	     54.54623464	      2.01219043	    -22.26146328	     26.08747090	      8.56115934	     -7.77327826	     52.93855726	     50.94212788	     84.33596554	     18.23457459	     17.59256553
      0.13793103	     -4.13670239	     -3.68355767	    103.68640333	      0.05417775	      0.98202805	      0.45006365	     -2.50697092	     -2.83278954	    -14.90644041	     13.82829595	      0.24134929	     28.69241352	      7.67353634	      0.00000000	     -5.89557343	      1.72602201	      0.90799919	      2.79796007	      0.04883362	     26.97936330	      9.89969936	      0.00000000	      0.04262297	      0.07539368	     -1.05362675	      0.07915511	      0.10027359	     -1.11947842	      0.07002527	      0.18331219	     -1.11947842	      0.04871379	      0.18331219	     -0.92192341	      0.03957969	      0.15374279	     -0.85607173	      0.02435476	      0.11678481	     -0.79022006	      0.30445158	      0.85286836	     -5.85995590	      0.00000000	      0.00000000	     21.83707062	      1.21562855	      0.73196618	      9.69148031	    -12.21947873	     68.15796329	     54.45091283	      2.05081370	    -21.44343663	     25.83667867	      8.74841239	     -7.93683965	     53.69268306	     51.08066276	     83.93909385	     17.76584023	     17.35050222
